<svg xml:space="preserve" viewBox="655.36 266.24 741.376 1486.848" width="741.376" y="0px" x="0px" xmlns:xlink="http://www.w3.org/1999/xlink" xmlns="http://www.w3.org/2000/svg" id="Layer_1" version="1.1" style="max-height: 500px" height="1486.848">
<path d="M1088.000000,2049.000000 &#10;&#9;C725.333313,2049.000000 363.166656,2049.000000 1.000000,2049.000000 &#10;&#9;C1.000000,1366.333374 1.000000,683.666687 1.000000,1.000000 &#10;&#9;C683.666687,1.000000 1366.333374,1.000000 2049.000000,1.000000 &#10;&#9;C2049.000000,683.666687 2049.000000,1366.333374 2049.000000,2049.000000 &#10;&#9;C1728.833374,2049.000000 1408.666626,2049.000000 1088.000000,2049.000000 &#10;M1091.124634,968.944153 &#10;&#9;C1091.124634,968.944153 1091.165161,968.873291 1091.097046,968.174377 &#10;&#9;C1089.430542,966.079590 1087.763916,963.984741 1086.123779,961.876404 &#10;&#9;C1086.123779,961.876404 1086.149414,961.853882 1086.102905,961.148193 &#10;&#9;C1079.037231,950.858276 1069.360352,943.860229 1058.006958,938.995361 &#10;&#9;C1058.006958,938.995361 1058.096680,938.944153 1058.061157,938.014587 &#10;&#9;C1058.045044,868.015808 1058.036133,798.016968 1058.010254,728.018188 &#10;&#9;C1057.992432,679.852173 1057.997437,631.686035 1057.890137,583.520203 &#10;&#9;C1057.860107,570.029175 1048.371582,557.075439 1035.655273,552.583252 &#10;&#9;C1023.015625,548.118225 1008.425354,551.951843 999.678955,562.057251 &#10;&#9;C992.682190,570.141174 991.291199,579.900818 991.291931,590.093872 &#10;&#9;C991.299500,704.425659 991.271362,818.757385 991.390259,933.089050 &#10;&#9;C991.394653,937.308105 990.160339,939.541382 986.394592,941.583069 &#10;&#9;C958.299255,956.815674 942.107971,991.252991 947.173340,1022.756470 &#10;&#9;C953.864380,1064.370117 992.404907,1093.244263 1032.363892,1088.931519 &#10;&#9;C1060.484253,1085.896606 1081.734619,1072.012939 1095.298462,1047.053345 &#10;&#9;C1097.334595,1043.306641 1099.361084,1041.955811 1103.643433,1041.960938 &#10;&#9;C1197.642090,1042.072021 1291.640747,1042.053101 1385.639526,1041.943481 &#10;&#9;C1399.477783,1041.927368 1409.940186,1035.578003 1414.880981,1022.553650 &#10;&#9;C1419.698486,1009.854553 1417.854492,997.539062 1408.599731,987.091309 &#10;&#9;C1401.842041,979.462708 1393.199097,975.952881 1382.874634,975.961609 &#10;&#9;C1289.042603,976.041016 1195.210449,976.020203 1101.378540,975.907959 &#10;&#9;C1098.965942,975.905090 1096.554932,974.525818 1094.092651,973.381653 &#10;&#9;C1094.092651,973.381653 1093.967407,972.991455 1093.882812,972.458679 &#10;&#9;C1093.611938,972.227478 1093.341064,971.996338 1092.871338,971.274231 &#10;&#9;C1092.565308,970.846191 1092.259277,970.418091 1091.898438,969.468079 &#10;&#9;C1091.625000,969.271118 1091.351562,969.074158 1091.124634,968.944153 &#10;M1665.816406,1362.332764 &#10;&#9;C1679.223999,1333.872681 1693.827881,1305.905762 1705.803223,1276.855103 &#10;&#9;C1735.450928,1204.932983 1751.620728,1129.698242 1755.549805,1052.089966 &#10;&#9;C1758.547607,992.880737 1755.841675,933.820251 1743.675049,875.562256 &#10;&#9;C1739.082764,853.573547 1733.704834,831.733826 1728.090820,809.979492 &#10;&#9;C1724.884766,797.555664 1717.395142,787.623047 1705.908569,781.629944 &#10;&#9;C1689.028809,772.822876 1672.193848,773.741333 1657.046875,785.379578 &#10;&#9;C1641.114624,797.621338 1637.235474,814.614319 1642.223633,833.376831 &#10;&#9;C1654.537476,879.692871 1663.230225,926.511230 1665.449341,974.512268 &#10;&#9;C1667.758545,1024.463989 1665.281494,1074.071655 1656.704468,1123.328369 &#10;&#9;C1643.293579,1200.343628 1615.932495,1272.229614 1575.613892,1339.073486 &#10;&#9;C1533.943604,1408.158081 1480.599121,1467.018555 1417.229736,1516.882202 &#10;&#9;C1371.787476,1552.639648 1322.456421,1581.825684 1269.126587,1604.095703 &#10;&#9;C1209.241211,1629.103027 1146.976929,1644.632080 1082.234863,1650.345215 &#10;&#9;C1030.528564,1654.908325 979.035217,1653.629517 927.796387,1645.639771 &#10;&#9;C871.393433,1636.844727 817.251221,1620.342773 765.153564,1596.880127 &#10;&#9;C677.928528,1557.597412 603.165710,1501.696899 540.413940,1429.623413 &#10;&#9;C484.129059,1364.977417 442.356110,1291.996826 415.105042,1210.717041 &#10;&#9;C394.989471,1150.719727 384.928589,1088.954590 383.225952,1025.816528 &#10;&#9;C381.923859,977.531738 385.677551,929.578369 395.488556,882.242859 &#10;&#9;C421.254517,757.929077 478.935242,650.404358 566.829285,559.046387 &#10;&#9;C621.123840,502.612000 684.038635,457.946808 754.785339,424.506348 &#10;&#9;C861.680908,373.979065 974.079041,354.886566 1091.728149,366.803467 &#10;&#9;C1157.915039,373.507660 1221.240356,391.007019 1281.942383,417.955017 &#10;&#9;C1298.812744,425.444458 1315.018677,434.432068 1331.520142,442.750763 &#10;&#9;C1357.893066,456.045715 1388.839600,441.035400 1394.636108,412.125275 &#10;&#9;C1398.600220,392.354401 1390.402954,373.560669 1372.572266,363.851776 &#10;&#9;C1358.104004,355.973785 1343.246948,348.767548 1328.318481,341.784790 &#10;&#9;C1268.825195,313.957062 1206.482788,295.021149 1141.798462,284.198547 &#10;&#9;C1084.408936,274.596497 1026.585571,272.370422 968.492615,276.752136 &#10;&#9;C918.956482,280.488434 870.563110,289.871643 822.942749,303.864746 &#10;&#9;C709.359619,337.240967 610.163879,395.478729 524.260864,476.576447 &#10;&#9;C479.725494,518.620544 441.013367,565.549377 407.894257,617.152527 &#10;&#9;C340.129517,722.737427 302.889435,838.308044 294.358154,963.219543 &#10;&#9;C290.829315,1014.887207 293.159454,1066.411987 300.791901,1117.687378 &#10;&#9;C311.385406,1188.855591 331.720795,1257.048340 362.920868,1321.911621 &#10;&#9;C411.462494,1422.827026 479.867798,1507.940674 566.870972,1578.339844 &#10;&#9;C638.921875,1636.640381 718.962708,1680.092529 807.105408,1708.568970 &#10;&#9;C876.241150,1730.904785 947.250732,1742.017822 1019.872498,1742.625854 &#10;&#9;C1062.935913,1742.986450 1105.722046,1739.621582 1148.176270,1732.139404 &#10;&#9;C1225.426392,1718.524780 1298.536377,1693.084229 1367.585205,1655.892700 &#10;&#9;C1436.211792,1618.928711 1497.391479,1572.104126 1551.513672,1516.133423 &#10;&#9;C1596.084595,1470.040039 1634.310547,1419.113159 1665.816406,1362.332764 &#10;M1441.627563,487.131989 &#10;&#9;C1434.737061,495.049133 1427.785156,502.913849 1420.972900,510.897888 &#10;&#9;C1414.056519,519.003845 1406.633911,526.780823 1400.586426,535.501709 &#10;&#9;C1390.896729,549.475159 1394.664917,569.240417 1407.945190,578.851562 &#10;&#9;C1421.588989,588.725830 1439.591797,586.417419 1450.609131,573.550171 &#10;&#9;C1482.032471,536.850464 1513.512939,500.199829 1544.990112,463.546356 &#10;&#9;C1545.893066,462.494965 1547.013062,461.629913 1548.477783,460.261169 &#10;&#9;C1551.547852,468.257843 1554.281128,475.570740 1557.163940,482.824188 &#10;&#9;C1559.435425,488.539673 1561.491333,494.395294 1564.375000,499.798096 &#10;&#9;C1567.396484,505.459351 1573.785767,507.921417 1579.720459,506.714447 &#10;&#9;C1585.585938,505.521576 1589.690063,501.147797 1590.883911,494.681396 &#10;&#9;C1591.336914,492.227509 1591.626587,489.741730 1591.939819,487.264099 &#10;&#9;C1596.493164,451.252808 1601.101440,415.248291 1605.553345,379.224487 &#10;&#9;C1607.343872,364.736237 1608.786377,350.204987 1610.426514,335.337036 &#10;&#9;C1608.358276,335.783905 1606.741333,336.066925 1605.160156,336.485260 &#10;&#9;C1589.388062,340.658173 1573.647583,344.953064 1557.848755,349.021240 &#10;&#9;C1526.412354,357.115997 1494.932373,365.040985 1463.497192,373.140503 &#10;&#9;C1453.105225,375.818054 1449.078491,381.115814 1449.928345,390.379852 &#10;&#9;C1450.626221,397.987671 1455.775513,401.768524 1462.295532,403.834900 &#10;&#9;C1473.716797,407.454529 1485.258057,410.695679 1496.752319,414.084320 &#10;&#9;C1498.565186,414.618774 1500.395264,415.095062 1502.990723,415.811829 &#10;&#9;C1482.269775,439.901306 1462.185059,463.251068 1441.627563,487.131989 &#10;M1067.500000,1262.917114 &#10;&#9;C1077.165405,1262.927368 1086.830811,1262.933350 1096.496216,1262.948608 &#10;&#9;C1115.183350,1262.978149 1118.204590,1259.935303 1118.129028,1241.143433 &#10;&#9;C1118.077515,1228.333862 1113.054810,1223.207397 1100.334473,1223.195923 &#10;&#9;C1054.008057,1223.153809 1007.681580,1223.151123 961.355164,1223.141235 &#10;&#9;C956.355957,1223.140259 951.353027,1223.076172 946.358459,1223.241821 &#10;&#9;C937.672363,1223.530151 932.416992,1228.530396 931.781921,1237.161743 &#10;&#9;C931.501343,1240.974854 931.376221,1244.831909 931.604126,1248.643555 &#10;&#9;C932.160706,1257.950073 937.375793,1262.825562 946.765747,1262.881470 &#10;&#9;C959.096680,1262.954956 971.428406,1262.873779 983.759827,1262.863525 &#10;&#9;C990.046875,1262.858276 996.333984,1262.862671 1003.288513,1262.862671 &#10;&#9;C1003.288513,1286.109863 1003.288513,1308.815674 1003.288513,1331.506348 &#10;&#9;C1017.884766,1331.506348 1031.799683,1331.506348 1046.174927,1331.506348 &#10;&#9;C1046.174927,1308.572388 1046.174927,1285.986572 1046.174927,1262.920288 &#10;&#9;C1053.255005,1262.920288 1059.877563,1262.920288 1067.500000,1262.917114 &#10;M1031.745972,1909.906494 &#10;&#9;C1036.667358,1923.679199 1041.740234,1937.401001 1046.402954,1951.260742 &#10;&#9;C1047.560669,1954.702271 1049.519287,1954.907471 1052.369507,1954.807495 &#10;&#9;C1055.238037,1954.707031 1057.500732,1954.828125 1058.811890,1951.129395 &#10;&#9;C1066.865479,1928.408325 1075.253418,1905.805664 1083.546753,1883.169678 &#10;&#9;C1083.853516,1882.332520 1084.332397,1881.558350 1085.251953,1879.705322 &#10;&#9;C1086.350098,1905.850952 1087.397827,1930.797852 1088.437500,1955.553711 &#10;&#9;C1092.915649,1955.553711 1096.498901,1955.553711 1100.224121,1955.553711 &#10;&#9;C1098.815430,1925.175293 1097.421509,1895.114014 1096.015747,1864.800659 &#10;&#9;C1091.190186,1864.800659 1086.709473,1864.613770 1082.263550,1864.925171 &#10;&#9;C1081.073975,1865.008545 1079.409668,1866.385742 1078.951294,1867.555908 &#10;&#9;C1075.494751,1876.379883 1072.251953,1885.288452 1069.005493,1894.193604 &#10;&#9;C1063.806030,1908.456055 1058.655273,1922.736206 1053.402832,1937.232788 &#10;&#9;C1053.003906,1936.603882 1052.658936,1936.231201 1052.504150,1935.791504 &#10;&#9;C1044.661865,1913.513794 1036.870239,1891.218018 1028.936646,1868.972900 &#10;&#9;C1028.361816,1867.361084 1026.884644,1865.026367 1025.626221,1864.890625 &#10;&#9;C1021.048889,1864.396851 1016.386047,1864.695557 1011.480225,1864.695557 &#10;&#9;C1009.598511,1895.359009 1007.748779,1925.500854 1005.900391,1955.620850 &#10;&#9;C1010.157776,1955.620850 1013.726135,1955.620850 1017.509277,1955.620850 &#10;&#9;C1018.698547,1930.575439 1019.873535,1905.829346 1021.048584,1881.083130 &#10;&#9;C1021.369324,1881.070557 1021.690125,1881.057983 1022.010864,1881.045532 &#10;&#9;C1025.143433,1890.427734 1028.276001,1899.810059 1031.745972,1909.906494 &#10;M1003.352234,1420.491455 &#10;&#9;C1003.397034,1424.483398 1002.696350,1428.671753 1003.683044,1432.415527 &#10;&#9;C1004.812439,1436.700928 1006.462219,1441.736084 1009.610779,1444.427612 &#10;&#9;C1017.421387,1451.104370 1027.008423,1450.526733 1036.022461,1447.043091 &#10;&#9;C1044.202637,1443.881592 1046.557373,1436.741211 1046.509644,1428.383789 &#10;&#9;C1046.397461,1408.755127 1046.524170,1389.124878 1046.553467,1369.495361 &#10;&#9;C1046.556030,1367.747559 1046.553711,1365.999878 1046.553711,1364.319824 &#10;&#9;C1031.713013,1364.319824 1017.668701,1364.319824 1003.347900,1364.319824 &#10;&#9;C1003.347900,1382.949829 1003.347900,1401.222046 1003.352234,1420.491455 &#10;M806.160461,1890.614380 &#10;&#9;C803.488831,1892.980957 800.817139,1895.347656 797.736755,1898.076294 &#10;&#9;C797.560486,1894.847900 797.402710,1891.958496 797.241882,1889.014038 &#10;&#9;C793.500122,1889.014038 790.094421,1889.014038 787.116333,1889.014038 &#10;&#9;C787.116333,1911.429688 787.116333,1933.521362 787.116333,1955.676758 &#10;&#9;C791.359558,1955.676758 795.113220,1955.676758 799.165466,1955.676758 &#10;&#9;C799.165466,1953.476929 799.161255,1951.491821 799.166199,1949.506592 &#10;&#9;C799.195618,1937.677612 798.991577,1925.841919 799.330505,1914.021729 &#10;&#9;C799.616028,1904.062744 806.737305,1896.932129 815.460632,1897.113770 &#10;&#9;C823.331909,1897.277466 828.726562,1903.803223 829.000610,1913.843750 &#10;&#9;C829.173157,1920.169556 828.994690,1926.504517 828.987671,1932.835449 &#10;&#9;C828.979248,1940.435181 828.985657,1948.034790 828.985657,1955.535034 &#10;&#9;C833.363220,1955.535034 837.089355,1955.535034 840.993469,1955.535034 &#10;&#9;C840.993469,1948.864136 840.983643,1942.543335 840.996216,1936.222534 &#10;&#9;C841.008789,1929.891479 840.786987,1923.545044 841.165649,1917.235229 &#10;&#9;C841.390625,1913.487305 842.013367,1909.560303 843.454041,1906.132690 &#10;&#9;C846.029114,1900.005981 851.565979,1897.181641 857.965149,1897.794312 &#10;&#9;C863.759827,1898.348999 868.191772,1902.021851 869.816772,1908.338989 &#10;&#9;C870.675293,1911.676758 870.962952,1915.233521 871.001221,1918.697144 &#10;&#9;C871.136841,1930.969971 871.054077,1943.245117 871.054077,1955.585083 &#10;&#9;C875.436096,1955.585083 879.311707,1955.585083 883.065857,1955.585083 &#10;&#9;C883.065857,1939.959229 883.694214,1924.623291 882.892456,1909.362427 &#10;&#9;C882.058960,1893.495728 868.360596,1884.169189 853.410095,1888.131714 &#10;&#9;C846.932312,1889.848511 842.636292,1894.264893 839.296509,1899.928955 &#10;&#9;C829.491943,1886.536499 819.346863,1883.581543 806.160461,1890.614380 &#10;M1378.450806,1966.718994 &#10;&#9;C1370.536987,1976.746216 1359.940552,1977.623535 1341.453491,1969.637085 &#10;&#9;C1340.971313,1971.025757 1340.657959,1972.483276 1339.989014,1973.753540 &#10;&#9;C1337.788452,1977.931885 1339.240601,1980.359375 1343.574341,1981.216553 &#10;&#9;C1349.572876,1982.402954 1355.606567,1984.243652 1361.636108,1984.287354 &#10;&#9;C1380.855835,1984.426880 1393.011597,1974.026123 1393.749634,1955.509521 &#10;&#9;C1394.628540,1933.452759 1393.956543,1911.334229 1393.956543,1889.068237 &#10;&#9;C1390.520020,1889.068237 1386.965332,1889.068237 1382.882080,1889.068237 &#10;&#9;C1382.882080,1892.048950 1382.882080,1894.714722 1382.882080,1898.418091 &#10;&#9;C1377.791626,1890.934692 1371.536743,1887.648560 1363.735962,1887.437256 &#10;&#9;C1351.872314,1887.115845 1340.707397,1894.172363 1335.932617,1905.127319 &#10;&#9;C1331.269043,1915.826416 1331.052979,1926.803223 1334.993286,1937.723145 &#10;&#9;C1339.839966,1951.154785 1353.251221,1958.568726 1366.962524,1954.708862 &#10;&#9;C1372.436890,1953.167725 1377.275146,1949.367065 1382.463135,1946.562378 &#10;&#9;C1382.317749,1952.892578 1382.607666,1959.813477 1378.450806,1966.718994 &#10;M1456.492065,1924.788818 &#10;&#9;C1461.101807,1924.788818 1465.711548,1924.788818 1470.957275,1924.788818 &#10;&#9;C1470.708008,1920.564697 1470.664917,1916.943359 1470.252441,1913.364502 &#10;&#9;C1468.751343,1900.341675 1461.705322,1891.407471 1450.655029,1888.292847 &#10;&#9;C1439.123779,1885.042725 1426.057861,1889.375000 1418.446899,1898.972656 &#10;&#9;C1408.155273,1911.950684 1408.529419,1934.362915 1418.933716,1946.341064 &#10;&#9;C1430.600708,1959.773193 1454.247925,1958.987915 1466.099976,1952.077026 &#10;&#9;C1465.366211,1949.468872 1464.622192,1946.824463 1463.871094,1944.154541 &#10;&#9;C1440.315308,1952.419922 1423.090454,1944.194458 1423.174561,1924.784912 &#10;&#9;C1433.944214,1924.784912 1444.719360,1924.784912 1456.492065,1924.788818 &#10;M944.440613,1955.903076 &#10;&#9;C947.686035,1954.898560 950.931458,1953.894043 954.192444,1952.884644 &#10;&#9;C953.725891,1950.835938 953.480957,1949.530273 953.124146,1948.255981 &#10;&#9;C952.743286,1946.895264 952.256897,1945.564087 951.809631,1944.198853 &#10;&#9;C929.788574,1952.776367 911.811218,1944.792114 911.460205,1924.444458 &#10;&#9;C927.022827,1924.444458 942.582520,1924.444458 958.506775,1924.444458 &#10;&#9;C958.863892,1915.274414 958.703003,1906.437256 953.480469,1899.157837 &#10;&#9;C950.538879,1895.057739 946.080566,1891.224731 941.460449,1889.302612 &#10;&#9;C927.123535,1883.338135 910.251587,1890.296631 903.456360,1904.275635 &#10;&#9;C898.416382,1914.643921 898.004761,1925.432983 901.631775,1936.294312 &#10;&#9;C904.410461,1944.615112 910.017517,1950.509644 918.113281,1953.976196 &#10;&#9;C926.373291,1957.512817 934.912231,1957.614624 944.440613,1955.903076 &#10;M1169.580078,1919.521729 &#10;&#9;C1169.233276,1914.554199 1169.620605,1909.399170 1168.408325,1904.652710 &#10;&#9;C1163.974731,1887.294556 1137.011597,1880.707520 1122.010254,1893.203003 &#10;&#9;C1122.847656,1895.735474 1123.700928,1898.315796 1124.562866,1900.922485 &#10;&#9;C1144.604004,1892.455444 1158.229004,1897.662842 1156.484497,1912.997559 &#10;&#9;C1155.048828,1913.071533 1153.561768,1913.086426 1152.087891,1913.234131 &#10;&#9;C1142.121826,1914.233521 1132.173706,1915.328491 1123.985229,1922.007202 &#10;&#9;C1117.179688,1927.557739 1115.269775,1934.881226 1117.168579,1943.091797 &#10;&#9;C1118.958008,1950.828979 1124.407349,1955.308838 1132.037231,1956.826904 &#10;&#9;C1140.726929,1958.555908 1148.534058,1956.515869 1155.079468,1950.317383 &#10;&#9;C1155.942383,1949.500122 1156.854004,1948.734009 1158.012085,1947.705078 &#10;&#9;C1158.241943,1950.760620 1158.426147,1953.209351 1158.614380,1955.713135 &#10;&#9;C1162.602051,1955.713135 1166.156006,1955.713135 1169.585815,1955.713135 &#10;&#9;C1169.585815,1943.769775 1169.585815,1932.142334 1169.580078,1919.521729 &#10;M1274.692383,1919.113770 &#10;&#9;C1266.737183,1924.109863 1261.900269,1930.850098 1263.463257,1940.675293 &#10;&#9;C1264.685303,1948.356445 1269.009155,1953.862793 1276.609985,1956.129028 &#10;&#9;C1285.324097,1958.727051 1293.415771,1957.337402 1300.392456,1951.221680 &#10;&#9;C1301.675903,1950.096558 1302.651123,1948.619873 1304.583740,1946.346802 &#10;&#9;C1304.929077,1950.507080 1305.139160,1953.036743 1305.347046,1955.541260 &#10;&#9;C1309.370850,1955.541260 1312.962646,1955.541260 1315.984863,1955.541260 &#10;&#9;C1315.984863,1941.311035 1316.013428,1927.368652 1315.975220,1913.426514 &#10;&#9;C1315.946777,1903.026123 1312.617798,1894.234741 1302.522827,1889.769531 &#10;&#9;C1290.876465,1884.618286 1279.652588,1887.314331 1268.402954,1892.126709 &#10;&#9;C1269.486084,1895.470459 1270.331787,1898.081055 1271.186279,1900.719116 &#10;&#9;C1291.135010,1892.643677 1304.828857,1898.003052 1303.061646,1911.446655 &#10;&#9;C1293.506104,1913.983765 1284.431885,1916.393066 1274.692383,1919.113770 &#10;M1235.140503,1923.536865 &#10;&#9;C1235.140503,1934.278564 1235.140503,1945.020386 1235.140503,1955.707764 &#10;&#9;C1239.708008,1955.707764 1243.489380,1955.707764 1247.176636,1955.707764 &#10;&#9;C1247.176636,1940.393799 1247.527466,1925.284546 1247.056885,1910.201050 &#10;&#9;C1246.727295,1899.631104 1239.927856,1891.279297 1230.785278,1888.422363 &#10;&#9;C1220.601562,1885.239990 1211.030029,1888.115479 1203.916870,1896.456055 &#10;&#9;C1203.355713,1897.114014 1202.606201,1897.611328 1201.403687,1898.650391 &#10;&#9;C1201.241211,1894.987915 1201.111206,1892.056030 1200.981201,1889.126221 &#10;&#9;C1197.117554,1889.126221 1193.573242,1889.126221 1190.356934,1889.126221 &#10;&#9;C1190.356934,1911.533813 1190.356934,1933.587769 1190.356934,1955.567871 &#10;&#9;C1194.543457,1955.567871 1198.278076,1955.567871 1202.361572,1955.567871 &#10;&#9;C1202.361572,1945.133179 1202.334473,1934.997925 1202.375488,1924.863037 &#10;&#9;C1202.390991,1921.037720 1202.265015,1917.176758 1202.723145,1913.395020 &#10;&#9;C1203.889038,1903.771118 1211.037598,1897.486572 1220.204834,1897.674927 &#10;&#9;C1228.431274,1897.843994 1234.267212,1904.267578 1234.970093,1914.066772 &#10;&#9;C1235.172363,1916.885010 1235.089966,1919.723633 1235.140503,1923.536865 &#10;M506.936493,1888.768188 &#10;&#9;C506.266754,1889.922729 505.019440,1891.074707 505.014557,1892.232056 &#10;&#9;C504.949127,1907.713745 505.063507,1923.196167 505.119202,1938.678345 &#10;&#9;C505.139374,1944.286865 505.122406,1949.895386 505.122406,1955.690308 &#10;&#9;C509.386261,1955.690308 513.158264,1955.690308 517.522949,1955.690308 &#10;&#9;C517.522949,1953.641357 517.516602,1951.687012 517.524048,1949.732666 &#10;&#9;C517.568298,1938.080566 517.362488,1926.420166 517.738708,1914.778687 &#10;&#9;C518.064819,1904.687744 526.071045,1897.054199 535.299255,1897.301880 &#10;&#9;C543.795898,1897.529907 549.831116,1904.516724 550.024841,1914.837036 &#10;&#9;C550.209106,1924.655273 550.037231,1934.480347 550.025085,1944.302368 &#10;&#9;C550.020447,1948.068726 550.024353,1951.835205 550.024353,1955.628662 &#10;&#9;C554.410339,1955.628662 558.161438,1955.628662 561.910278,1955.628662 &#10;&#9;C561.910278,1939.752075 562.837830,1924.066406 561.653015,1908.541992 &#10;&#9;C560.433411,1892.562378 545.521118,1883.326538 530.479248,1888.464355 &#10;&#9;C525.492981,1890.167358 521.344910,1894.324341 516.666382,1897.458130 &#10;&#9;C516.666382,1894.921997 516.666382,1892.012207 516.666382,1888.739746 &#10;&#9;C513.431702,1888.739746 510.632172,1888.739746 506.936493,1888.768188 &#10;M604.858459,1935.560425 &#10;&#9;C598.848694,1919.926147 592.838989,1904.291748 586.976746,1889.041016 &#10;&#9;C582.347473,1889.041016 578.254395,1889.041016 573.789917,1889.041016 &#10;&#9;C574.527161,1890.792847 575.099548,1892.131104 575.655212,1893.476440 &#10;&#9;C583.326172,1912.049805 590.938232,1930.647827 598.718018,1949.175415 &#10;&#9;C600.066589,1952.387085 599.962280,1955.009155 598.183533,1958.037109 &#10;&#9;C593.398865,1966.181763 587.442566,1972.781372 577.548584,1974.878906 &#10;&#9;C578.177307,1978.471313 578.738342,1981.677124 579.331909,1985.068359 &#10;&#9;C580.901367,1984.865356 582.052429,1984.817505 583.153870,1984.558594 &#10;&#9;C594.864197,1981.806396 602.211670,1973.763916 606.923279,1963.457031 &#10;&#9;C614.167053,1947.610474 620.796692,1931.478149 627.462524,1915.374390 &#10;&#9;C631.036072,1906.741211 634.140808,1897.913940 637.644531,1888.680298 &#10;&#9;C634.544678,1888.680298 632.191772,1888.939575 629.919312,1888.622437 &#10;&#9;C626.036072,1888.080200 624.542786,1889.771973 623.385254,1893.373901 &#10;&#9;C619.829224,1904.439819 615.814026,1915.358398 611.953491,1926.325806 &#10;&#9;C610.393799,1930.756958 608.772522,1935.166382 606.893433,1940.378296 &#10;&#9;C606.016541,1938.412109 605.555054,1937.377441 604.858459,1935.560425 &#10;M444.573975,1033.769165 &#10;&#9;C446.060547,1033.634521 447.563751,1033.598145 449.031067,1033.349609 &#10;&#9;C460.656952,1031.380737 468.292328,1023.303284 469.670105,1011.573608 &#10;&#9;C470.789612,1002.042969 464.842865,991.797668 455.783112,987.648010 &#10;&#9;C445.365082,982.876404 433.040405,985.122131 426.141327,993.449524 &#10;&#9;C420.054779,1000.796326 418.483368,1009.260071 421.863708,1018.252380 &#10;&#9;C425.611664,1028.222656 433.405426,1032.849487 444.573975,1033.769165 &#10;M1615.737427,987.570312 &#10;&#9;C1614.012451,986.972534 1612.315796,986.270447 1610.557861,985.794495 &#10;&#9;C1601.660767,983.385559 1591.375244,986.849365 1585.979736,994.010742 &#10;&#9;C1579.536133,1002.563538 1578.910522,1013.621155 1584.365356,1022.548462 &#10;&#9;C1589.218628,1030.490967 1599.026367,1034.888794 1608.362671,1033.308838 &#10;&#9;C1619.355957,1031.448242 1626.786865,1024.543945 1628.635620,1014.120789 &#10;&#9;C1630.349731,1004.456421 1626.379395,992.979004 1615.737427,987.570312 &#10;M1004.584412,1577.238159 &#10;&#9;C1003.893005,1578.563965 1003.099426,1579.847168 1002.526611,1581.222412 &#10;&#9;C998.601074,1590.646484 1000.791443,1601.485474 1007.972900,1608.414673 &#10;&#9;C1014.769409,1614.972900 1025.898071,1616.753784 1034.964111,1612.734497 &#10;&#9;C1043.604614,1608.903809 1049.413696,1599.085693 1048.861816,1589.245239 &#10;&#9;C1048.308960,1579.389404 1041.839722,1571.092285 1032.116699,1567.768311 &#10;&#9;C1022.479004,1564.473755 1012.731262,1567.662231 1004.584412,1577.238159 &#10;M1000.852051,427.375946 &#10;&#9;C1001.576294,441.806091 1011.971497,450.884888 1026.875122,450.103516 &#10;&#9;C1038.830933,449.476685 1049.372314,437.720581 1048.721802,425.739105 &#10;&#9;C1047.944214,411.412689 1037.448608,401.644989 1023.158081,401.947876 &#10;&#9;C1010.456238,402.217102 1001.132690,412.460724 1000.852051,427.375946 &#10;M420.265320,1897.499878 &#10;&#9;C420.265320,1916.900757 420.265320,1936.301636 420.265320,1955.651978 &#10;&#9;C424.834076,1955.651978 428.448608,1955.651978 432.495483,1955.651978 &#10;&#9;C432.495483,1928.728516 432.495483,1902.027466 432.495483,1874.828369 &#10;&#9;C441.994751,1874.828369 451.063049,1874.828369 460.136414,1874.828369 &#10;&#9;C460.136414,1871.065308 460.136414,1867.815063 460.136414,1864.515259 &#10;&#9;C437.536469,1864.515259 415.317322,1864.515259 392.922485,1864.515259 &#10;&#9;C392.922485,1868.095459 392.922485,1871.368896 392.922485,1875.117065 &#10;&#9;C402.053528,1875.117065 410.962189,1875.117065 420.264160,1875.117065 &#10;&#9;C420.264160,1882.558594 420.264160,1889.529175 420.265320,1897.499878 &#10;M711.056580,1955.906250 &#10;&#9;C711.763123,1954.437378 713.079468,1952.971069 713.085266,1951.499512 &#10;&#9;C713.177856,1927.838135 713.103394,1904.176270 713.067627,1880.514404 &#10;&#9;C713.064941,1878.736206 713.067322,1876.958008 713.067322,1874.889648 &#10;&#9;C722.698914,1874.889648 731.795532,1874.889648 740.973267,1874.889648 &#10;&#9;C740.973267,1871.172485 740.973267,1867.760254 740.973267,1864.334473 &#10;&#9;C718.377869,1864.334473 696.114868,1864.334473 673.672974,1864.334473 &#10;&#9;C673.672974,1867.981323 673.672974,1871.375000 673.672974,1875.196045 &#10;&#9;C682.926941,1875.196045 691.841492,1875.196045 701.209839,1875.196045 &#10;&#9;C701.209839,1902.349976 701.209839,1929.075684 701.209839,1955.901001 &#10;&#9;C704.505493,1955.901001 707.328979,1955.901001 711.056580,1955.906250 &#10;M1487.396118,1888.953491 &#10;&#9;C1487.082886,1889.934692 1486.494995,1890.916504 1486.496704,1891.897095 &#10;&#9;C1486.531860,1911.696899 1486.630493,1931.496582 1486.732544,1951.296265 &#10;&#9;C1486.739990,1952.735229 1486.870239,1954.173828 1486.934814,1955.442627 &#10;&#9;C1491.089355,1955.442627 1494.838257,1955.442627 1498.448608,1955.442627 &#10;&#9;C1498.629761,1954.967285 1498.734863,1954.819336 1498.735596,1954.670898 &#10;&#9;C1498.793091,1943.025757 1498.930420,1931.380005 1498.856567,1919.735718 &#10;&#9;C1498.817993,1913.650391 1500.316162,1908.203735 1504.523193,1903.720337 &#10;&#9;C1508.469116,1899.515015 1513.539429,1898.695435 1519.251831,1899.736938 &#10;&#9;C1519.251831,1895.572266 1519.251831,1891.842041 1519.251831,1888.003662 &#10;&#9;C1509.036621,1886.515137 1502.953247,1891.893921 1497.704590,1899.697388 &#10;&#9;C1497.704590,1896.170532 1497.704590,1892.643677 1497.704590,1888.905029 &#10;&#9;C1494.218018,1888.905029 1491.234619,1888.905029 1487.396118,1888.953491 &#10;M761.215942,1888.551147 &#10;&#9;C758.626282,1888.551147 756.036621,1888.551147 753.534058,1888.551147 &#10;&#9;C753.534058,1911.440063 753.534058,1933.516968 753.534058,1955.579834 &#10;&#9;C757.641785,1955.579834 761.383118,1955.579834 765.398499,1955.579834 &#10;&#9;C765.398499,1933.830811 765.434204,1912.375244 765.258667,1890.921387 &#10;&#9;C765.252075,1890.121948 763.188354,1889.339233 761.215942,1888.551147 &#10;M471.880524,1939.498657 &#10;&#9;C471.880524,1944.899292 471.880524,1950.300049 471.880524,1955.577393 &#10;&#9;C476.238800,1955.577393 479.839966,1955.577393 483.693390,1955.577393 &#10;&#9;C483.693390,1933.267456 483.693390,1911.197754 483.693390,1888.831665 &#10;&#9;C479.819061,1888.831665 475.925049,1888.831665 471.877533,1888.831665 &#10;&#9;C471.877533,1905.576660 471.877533,1922.038208 471.880524,1939.498657 &#10;M765.559143,1873.040039 &#10;&#9;C767.239319,1866.766724 765.317932,1862.578247 760.302063,1861.885254 &#10;&#9;C756.217712,1861.320801 753.071167,1862.799072 751.586060,1866.820190 &#10;&#9;C750.247131,1870.445435 751.539673,1873.501953 754.592102,1875.479858 &#10;&#9;C758.482605,1878.000610 762.160217,1877.338867 765.559143,1873.040039 &#10;M470.025940,1870.279785 &#10;&#9;C470.816620,1874.716431 473.489990,1877.045410 477.970673,1876.921021 &#10;&#9;C481.740997,1876.816528 484.184723,1874.703125 485.063354,1871.040649 &#10;&#9;C486.134796,1866.574219 483.752441,1862.810181 479.501343,1861.995117 &#10;&#9;C474.405518,1861.017944 471.132263,1863.590942 470.025940,1870.279785 &#10;z" stroke="none" opacity="1.000000" fill="#FFFFFF"/>
<path d="M1665.629150,1362.649658 &#10;&#9;C1634.310547,1419.113159 1596.084595,1470.040039 1551.513672,1516.133423 &#10;&#9;C1497.391479,1572.104126 1436.211792,1618.928711 1367.585205,1655.892700 &#10;&#9;C1298.536377,1693.084229 1225.426392,1718.524780 1148.176270,1732.139404 &#10;&#9;C1105.722046,1739.621582 1062.935913,1742.986450 1019.872498,1742.625854 &#10;&#9;C947.250732,1742.017822 876.241150,1730.904785 807.105408,1708.568970 &#10;&#9;C718.962708,1680.092529 638.921875,1636.640381 566.870972,1578.339844 &#10;&#9;C479.867798,1507.940674 411.462494,1422.827026 362.920868,1321.911621 &#10;&#9;C331.720795,1257.048340 311.385406,1188.855591 300.791901,1117.687378 &#10;&#9;C293.159454,1066.411987 290.829315,1014.887207 294.358154,963.219543 &#10;&#9;C302.889435,838.308044 340.129517,722.737427 407.894257,617.152527 &#10;&#9;C441.013367,565.549377 479.725494,518.620544 524.260864,476.576447 &#10;&#9;C610.163879,395.478729 709.359619,337.240967 822.942749,303.864746 &#10;&#9;C870.563110,289.871643 918.956482,280.488434 968.492615,276.752136 &#10;&#9;C1026.585571,272.370422 1084.408936,274.596497 1141.798462,284.198547 &#10;&#9;C1206.482788,295.021149 1268.825195,313.957062 1328.318481,341.784790 &#10;&#9;C1343.246948,348.767548 1358.104004,355.973785 1372.572266,363.851776 &#10;&#9;C1390.402954,373.560669 1398.600220,392.354401 1394.636108,412.125275 &#10;&#9;C1388.839600,441.035400 1357.893066,456.045715 1331.520142,442.750763 &#10;&#9;C1315.018677,434.432068 1298.812744,425.444458 1281.942383,417.955017 &#10;&#9;C1221.240356,391.007019 1157.915039,373.507660 1091.728149,366.803467 &#10;&#9;C974.079041,354.886566 861.680908,373.979065 754.785339,424.506348 &#10;&#9;C684.038635,457.946808 621.123840,502.612000 566.829285,559.046387 &#10;&#9;C478.935242,650.404358 421.254517,757.929077 395.488556,882.242859 &#10;&#9;C385.677551,929.578369 381.923859,977.531738 383.225952,1025.816528 &#10;&#9;C384.928589,1088.954590 394.989471,1150.719727 415.105042,1210.717041 &#10;&#9;C442.356110,1291.996826 484.129059,1364.977417 540.413940,1429.623413 &#10;&#9;C603.165710,1501.696899 677.928528,1557.597412 765.153564,1596.880127 &#10;&#9;C817.251221,1620.342773 871.393433,1636.844727 927.796387,1645.639771 &#10;&#9;C979.035217,1653.629517 1030.528564,1654.908325 1082.234863,1650.345215 &#10;&#9;C1146.976929,1644.632080 1209.241211,1629.103027 1269.126587,1604.095703 &#10;&#9;C1322.456421,1581.825684 1371.787476,1552.639648 1417.229736,1516.882202 &#10;&#9;C1480.599121,1467.018555 1533.943604,1408.158081 1575.613892,1339.073486 &#10;&#9;C1615.932495,1272.229614 1643.293579,1200.343628 1656.704468,1123.328369 &#10;&#9;C1665.281494,1074.071655 1667.758545,1024.463989 1665.449341,974.512268 &#10;&#9;C1663.230225,926.511230 1654.537476,879.692871 1642.223633,833.376831 &#10;&#9;C1637.235474,814.614319 1641.114624,797.621338 1657.046875,785.379578 &#10;&#9;C1672.193848,773.741333 1689.028809,772.822876 1705.908569,781.629944 &#10;&#9;C1717.395142,787.623047 1724.884766,797.555664 1728.090820,809.979492 &#10;&#9;C1733.704834,831.733826 1739.082764,853.573547 1743.675049,875.562256 &#10;&#9;C1755.841675,933.820251 1758.547607,992.880737 1755.549805,1052.089966 &#10;&#9;C1751.620728,1129.698242 1735.450928,1204.932983 1705.803223,1276.855103 &#10;&#9;C1693.827881,1305.905762 1679.223999,1333.872681 1665.629150,1362.649658 &#10;z" stroke="none" opacity="1.000000" fill="#487FA8"/>
<path d="M1058.062134,938.906311 &#10;&#9;C1069.360352,943.860229 1079.037231,950.858276 1085.752808,961.516418 &#10;&#9;C1084.368896,961.781189 1083.335083,961.677795 1081.928223,961.537048 &#10;&#9;C1082.343506,963.986816 1082.747559,965.902649 1082.982300,967.838989 &#10;&#9;C1083.778442,974.408936 1087.912598,976.631104 1094.143188,973.788391 &#10;&#9;C1096.554932,974.525818 1098.965942,975.905090 1101.378540,975.907959 &#10;&#9;C1195.210449,976.020203 1289.042603,976.041016 1382.874634,975.961609 &#10;&#9;C1393.199097,975.952881 1401.842041,979.462708 1408.599731,987.091309 &#10;&#9;C1417.854492,997.539062 1419.698486,1009.854553 1414.880981,1022.553650 &#10;&#9;C1409.940186,1035.578003 1399.477783,1041.927368 1385.639526,1041.943481 &#10;&#9;C1291.640747,1042.053101 1197.642090,1042.072021 1103.643433,1041.960938 &#10;&#9;C1099.361084,1041.955811 1097.334595,1043.306641 1095.298462,1047.053345 &#10;&#9;C1081.734619,1072.012939 1060.484253,1085.896606 1032.363892,1088.931519 &#10;&#9;C992.404907,1093.244263 953.864380,1064.370117 947.173340,1022.756470 &#10;&#9;C942.107971,991.252991 958.299255,956.815674 986.394592,941.583069 &#10;&#9;C990.160339,939.541382 991.394653,937.308105 991.390259,933.089050 &#10;&#9;C991.271362,818.757385 991.299500,704.425659 991.291931,590.093872 &#10;&#9;C991.291199,579.900818 992.682190,570.141174 999.678955,562.057251 &#10;&#9;C1008.425354,551.951843 1023.015625,548.118225 1035.655273,552.583252 &#10;&#9;C1048.371582,557.075439 1057.860107,570.029175 1057.890137,583.520203 &#10;&#9;C1057.997437,631.686035 1057.992432,679.852173 1058.010254,728.018188 &#10;&#9;C1058.036133,798.016968 1058.045044,868.015808 1057.694824,938.430298 &#10;&#9;C1054.052124,934.933472 1055.914795,930.504944 1055.959106,926.213928 &#10;&#9;C1056.078735,914.637024 1056.000000,903.058105 1056.000000,891.479980 &#10;&#9;C1056.000000,853.649658 1056.000000,815.819275 1056.000000,777.988953 &#10;&#9;C1056.000000,761.743408 1056.000000,745.497803 1056.000000,729.252258 &#10;&#9;C1056.000000,699.756470 1056.001587,670.260742 1055.994751,640.764954 &#10;&#9;C1055.994385,639.267212 1055.889648,637.769470 1055.886597,636.271667 &#10;&#9;C1055.872314,629.439758 1055.189331,622.522644 1056.022705,615.794189 &#10;&#9;C1057.599365,603.063354 1053.627686,591.310791 1050.916870,579.295227 &#10;&#9;C1050.811646,578.828857 1050.418335,578.434021 1050.266357,577.970764 &#10;&#9;C1049.491577,575.608154 1047.638916,572.912964 1048.212280,570.925110 &#10;&#9;C1049.819092,565.354980 1046.651855,562.328369 1043.082886,559.750061 &#10;&#9;C1038.846802,556.689941 1033.845947,552.842468 1028.660645,555.877380 &#10;&#9;C1025.476562,557.741089 1023.223328,557.818665 1020.025574,557.275208 &#10;&#9;C1015.936951,556.580261 1011.548584,554.298157 1007.670349,557.912842 &#10;&#9;C1005.111938,560.297302 1001.894775,562.434937 1000.410278,565.402222 &#10;&#9;C998.257629,569.705139 994.684021,573.268311 995.693604,579.376831 &#10;&#9;C997.155884,588.224487 998.085327,597.648010 996.558899,606.355591 &#10;&#9;C995.209229,614.054688 995.270569,621.641724 996.514465,628.740906 &#10;&#9;C998.225098,638.502991 996.720703,647.780884 996.222168,657.293518 &#10;&#9;C995.889893,663.633301 996.463623,670.020935 996.646545,676.386719 &#10;&#9;C996.670044,677.205872 996.885681,678.028625 996.838257,678.839478 &#10;&#9;C996.244141,689.001404 995.201355,699.157532 995.104492,709.322998 &#10;&#9;C994.981201,722.279419 995.896362,735.243774 995.858765,748.203308 &#10;&#9;C995.802063,767.737427 995.056274,787.270508 995.070435,806.803650 &#10;&#9;C995.084778,826.591492 995.693726,846.378540 995.984741,866.166809 &#10;&#9;C996.081543,872.745605 995.916931,879.328552 996.034546,885.906738 &#10;&#9;C996.096191,889.359131 996.910889,892.831055 996.690796,896.249390 &#10;&#9;C995.974365,907.375916 994.897461,918.478943 994.095886,929.600830 &#10;&#9;C994.026794,930.559692 994.713806,932.147888 995.478760,932.493164 &#10;&#9;C998.912170,934.043213 1002.500732,935.249573 1007.065918,936.968750 &#10;&#9;C1007.170227,940.789429 1009.844727,944.203003 1015.017334,945.815125 &#10;&#9;C1015.967590,946.111328 1016.957275,948.275940 1016.883240,949.515686 &#10;&#9;C1016.576965,954.644287 1018.090027,957.598450 1023.872314,957.134949 &#10;&#9;C1024.790894,957.061340 1025.826904,958.454773 1026.808594,959.170044 &#10;&#9;C1025.885254,960.103882 1025.121704,961.376526 1024.006104,961.902893 &#10;&#9;C1021.427551,963.119507 1018.678528,963.974548 1015.691162,965.059082 &#10;&#9;C1014.961121,965.174072 1014.538452,965.206177 1013.938965,964.886719 &#10;&#9;C1010.745361,963.404541 1007.618469,961.164062 1004.742126,961.449463 &#10;&#9;C1001.746155,961.746643 998.440735,963.967102 996.278625,966.286438 &#10;&#9;C993.849731,968.892029 992.490601,972.518494 990.784241,975.763000 &#10;&#9;C990.055542,977.148499 989.625793,978.691345 988.968750,980.492920 &#10;&#9;C981.428223,992.368835 977.454712,1004.653503 979.976746,1018.629028 &#10;&#9;C984.331055,1042.758301 1006.365051,1058.524902 1030.677612,1055.205444 &#10;&#9;C1042.908691,1053.535400 1052.400757,1047.474731 1061.203125,1038.974365 &#10;&#9;C1063.379150,1038.613403 1065.191528,1038.458252 1066.895752,1037.944580 &#10;&#9;C1070.558350,1036.840576 1074.259033,1034.777588 1072.798218,1030.517944 &#10;&#9;C1071.005737,1025.291748 1071.414185,1020.322937 1071.937256,1015.145386 &#10;&#9;C1072.038818,1014.140198 1071.343140,1013.054504 1070.963379,1011.630981 &#10;&#9;C1070.946777,1010.501892 1070.982178,1009.747620 1071.299805,1008.722351 &#10;&#9;C1071.527344,1005.378113 1070.530273,1001.902161 1071.632202,999.323120 &#10;&#9;C1073.426147,995.124878 1075.840088,991.188965 1076.821289,986.641724 &#10;&#9;C1077.116455,985.273621 1077.701294,983.871155 1077.590088,982.531250 &#10;&#9;C1077.317261,979.245728 1076.716064,975.987488 1076.184326,972.280823 &#10;&#9;C1075.784790,972.469238 1074.432861,972.873901 1073.357544,973.658020 &#10;&#9;C1070.066528,976.057800 1061.557373,978.557434 1057.649658,977.894897 &#10;&#9;C1056.213867,976.605530 1055.061523,975.446838 1053.908325,973.911621 &#10;&#9;C1049.853394,968.390869 1051.861450,957.324341 1056.804199,952.843262 &#10;&#9;C1055.774048,952.265625 1054.405518,951.956116 1053.957275,951.140686 &#10;&#9;C1053.267456,949.885742 1053.208862,948.283813 1052.882568,946.829041 &#10;&#9;C1054.160400,947.423645 1055.492554,947.926270 1056.700195,948.639771 &#10;&#9;C1057.832764,949.308838 1058.855713,950.898865 1059.888184,950.865906 &#10;&#9;C1063.187988,950.760620 1066.469604,950.089661 1069.758301,949.637085 &#10;&#9;C1069.838379,949.147217 1069.918457,948.657288 1069.998535,948.167358 &#10;&#9;C1068.094849,946.994751 1066.062378,945.985046 1064.319580,944.608459 &#10;&#9;C1062.110596,942.863586 1060.137207,940.820679 1058.062134,938.906311 &#10;z" stroke="none" opacity="1.000000" fill="#80B3CC"/>
<path d="M1441.864014,486.866394 &#10;&#9;C1462.185059,463.251068 1482.269775,439.901306 1502.990723,415.811829 &#10;&#9;C1500.395264,415.095062 1498.565186,414.618774 1496.752319,414.084320 &#10;&#9;C1485.258057,410.695679 1473.716797,407.454529 1462.295532,403.834900 &#10;&#9;C1455.775513,401.768524 1450.626221,397.987671 1449.928345,390.379852 &#10;&#9;C1449.078491,381.115814 1453.105225,375.818054 1463.497192,373.140503 &#10;&#9;C1494.932373,365.040985 1526.412354,357.115997 1557.848755,349.021240 &#10;&#9;C1573.647583,344.953064 1589.388062,340.658173 1605.160156,336.485260 &#10;&#9;C1606.741333,336.066925 1608.358276,335.783905 1610.426514,335.337036 &#10;&#9;C1608.786377,350.204987 1607.343872,364.736237 1605.553345,379.224487 &#10;&#9;C1601.101440,415.248291 1596.493164,451.252808 1591.939819,487.264099 &#10;&#9;C1591.626587,489.741730 1591.336914,492.227509 1590.883911,494.681396 &#10;&#9;C1589.690063,501.147797 1585.585938,505.521576 1579.720459,506.714447 &#10;&#9;C1573.785767,507.921417 1567.396484,505.459351 1564.375000,499.798096 &#10;&#9;C1561.491333,494.395294 1559.435425,488.539673 1557.163940,482.824188 &#10;&#9;C1554.281128,475.570740 1551.547852,468.257843 1548.477783,460.261169 &#10;&#9;C1547.013062,461.629913 1545.893066,462.494965 1544.990112,463.546356 &#10;&#9;C1513.512939,500.199829 1482.032471,536.850464 1450.609131,573.550171 &#10;&#9;C1439.591797,586.417419 1421.588989,588.725830 1407.945190,578.851562 &#10;&#9;C1394.664917,569.240417 1390.896729,549.475159 1400.586426,535.501709 &#10;&#9;C1406.633911,526.780823 1414.056519,519.003845 1420.972900,510.897888 &#10;&#9;C1427.785156,502.913849 1434.737061,495.049133 1441.864014,486.866394 &#10;z" stroke="none" opacity="1.000000" fill="#487EA6"/>
<path d="M1067.000000,1262.918701 &#10;&#9;C1059.877563,1262.920288 1053.255005,1262.920288 1046.174927,1262.920288 &#10;&#9;C1046.174927,1285.986572 1046.174927,1308.572388 1046.174927,1331.506348 &#10;&#9;C1031.799683,1331.506348 1017.884766,1331.506348 1003.288513,1331.506348 &#10;&#9;C1003.288513,1308.815674 1003.288513,1286.109863 1003.288513,1262.862671 &#10;&#9;C996.333984,1262.862671 990.046875,1262.858276 983.759827,1262.863525 &#10;&#9;C971.428406,1262.873779 959.096680,1262.954956 946.765747,1262.881470 &#10;&#9;C937.375793,1262.825562 932.160706,1257.950073 931.604126,1248.643555 &#10;&#9;C931.376221,1244.831909 931.501343,1240.974854 931.781921,1237.161743 &#10;&#9;C932.416992,1228.530396 937.672363,1223.530151 946.358459,1223.241821 &#10;&#9;C951.353027,1223.076172 956.355957,1223.140259 961.355164,1223.141235 &#10;&#9;C1007.681580,1223.151123 1054.008057,1223.153809 1100.334473,1223.195923 &#10;&#9;C1113.054810,1223.207397 1118.077515,1228.333862 1118.129028,1241.143433 &#10;&#9;C1118.204590,1259.935303 1115.183350,1262.978149 1096.496216,1262.948608 &#10;&#9;C1086.830811,1262.933350 1077.165405,1262.927368 1067.000000,1262.918701 &#10;z" stroke="none" opacity="1.000000" fill="#43769B"/>
<path d="M1031.577271,1909.549438 &#10;&#9;C1028.276001,1899.810059 1025.143433,1890.427734 1022.010864,1881.045532 &#10;&#9;C1021.690125,1881.057983 1021.369324,1881.070557 1021.048584,1881.083130 &#10;&#9;C1019.873535,1905.829346 1018.698547,1930.575439 1017.509277,1955.620850 &#10;&#9;C1013.726135,1955.620850 1010.157776,1955.620850 1005.900391,1955.620850 &#10;&#9;C1007.748779,1925.500854 1009.598511,1895.359009 1011.480225,1864.695557 &#10;&#9;C1016.386047,1864.695557 1021.048889,1864.396851 1025.626221,1864.890625 &#10;&#9;C1026.884644,1865.026367 1028.361816,1867.361084 1028.936646,1868.972900 &#10;&#9;C1036.870239,1891.218018 1044.661865,1913.513794 1052.504150,1935.791504 &#10;&#9;C1052.658936,1936.231201 1053.003906,1936.603882 1053.402832,1937.232788 &#10;&#9;C1058.655273,1922.736206 1063.806030,1908.456055 1069.005493,1894.193604 &#10;&#9;C1072.251953,1885.288452 1075.494751,1876.379883 1078.951294,1867.555908 &#10;&#9;C1079.409668,1866.385742 1081.073975,1865.008545 1082.263550,1864.925171 &#10;&#9;C1086.709473,1864.613770 1091.190186,1864.800659 1096.015747,1864.800659 &#10;&#9;C1097.421509,1895.114014 1098.815430,1925.175293 1100.224121,1955.553711 &#10;&#9;C1096.498901,1955.553711 1092.915649,1955.553711 1088.437500,1955.553711 &#10;&#9;C1087.397827,1930.797852 1086.350098,1905.850952 1085.251953,1879.705322 &#10;&#9;C1084.332397,1881.558350 1083.853516,1882.332520 1083.546753,1883.169678 &#10;&#9;C1075.253418,1905.805664 1066.865479,1928.408325 1058.811890,1951.129395 &#10;&#9;C1057.500732,1954.828125 1055.238037,1954.707031 1052.369507,1954.807495 &#10;&#9;C1049.519287,1954.907471 1047.560669,1954.702271 1046.402954,1951.260742 &#10;&#9;C1041.740234,1937.401001 1036.667358,1923.679199 1031.577271,1909.549438 &#10;z" stroke="none" opacity="1.000000" fill="#080909"/>
<path d="M1003.350098,1419.992920 &#10;&#9;C1003.347900,1401.222046 1003.347900,1382.949829 1003.347900,1364.319824 &#10;&#9;C1017.668701,1364.319824 1031.713013,1364.319824 1046.553711,1364.319824 &#10;&#9;C1046.553711,1365.999878 1046.556030,1367.747559 1046.553467,1369.495361 &#10;&#9;C1046.524170,1389.124878 1046.397461,1408.755127 1046.509644,1428.383789 &#10;&#9;C1046.557373,1436.741211 1044.202637,1443.881592 1036.022461,1447.043091 &#10;&#9;C1027.008423,1450.526733 1017.421387,1451.104370 1009.610779,1444.427612 &#10;&#9;C1006.462219,1441.736084 1004.812439,1436.700928 1003.683044,1432.415527 &#10;&#9;C1002.696350,1428.671753 1003.397034,1424.483398 1003.350098,1419.992920 &#10;z" stroke="none" opacity="1.000000" fill="#43759A"/>
<path d="M806.458008,1890.395020 &#10;&#9;C819.346863,1883.581543 829.491943,1886.536499 839.296509,1899.928955 &#10;&#9;C842.636292,1894.264893 846.932312,1889.848511 853.410095,1888.131714 &#10;&#9;C868.360596,1884.169189 882.058960,1893.495728 882.892456,1909.362427 &#10;&#9;C883.694214,1924.623291 883.065857,1939.959229 883.065857,1955.585083 &#10;&#9;C879.311707,1955.585083 875.436096,1955.585083 871.054077,1955.585083 &#10;&#9;C871.054077,1943.245117 871.136841,1930.969971 871.001221,1918.697144 &#10;&#9;C870.962952,1915.233521 870.675293,1911.676758 869.816772,1908.338989 &#10;&#9;C868.191772,1902.021851 863.759827,1898.348999 857.965149,1897.794312 &#10;&#9;C851.565979,1897.181641 846.029114,1900.005981 843.454041,1906.132690 &#10;&#9;C842.013367,1909.560303 841.390625,1913.487305 841.165649,1917.235229 &#10;&#9;C840.786987,1923.545044 841.008789,1929.891479 840.996216,1936.222534 &#10;&#9;C840.983643,1942.543335 840.993469,1948.864136 840.993469,1955.535034 &#10;&#9;C837.089355,1955.535034 833.363220,1955.535034 828.985657,1955.535034 &#10;&#9;C828.985657,1948.034790 828.979248,1940.435181 828.987671,1932.835449 &#10;&#9;C828.994690,1926.504517 829.173157,1920.169556 829.000610,1913.843750 &#10;&#9;C828.726562,1903.803223 823.331909,1897.277466 815.460632,1897.113770 &#10;&#9;C806.737305,1896.932129 799.616028,1904.062744 799.330505,1914.021729 &#10;&#9;C798.991577,1925.841919 799.195618,1937.677612 799.166199,1949.506592 &#10;&#9;C799.161255,1951.491821 799.165466,1953.476929 799.165466,1955.676758 &#10;&#9;C795.113220,1955.676758 791.359558,1955.676758 787.116333,1955.676758 &#10;&#9;C787.116333,1933.521362 787.116333,1911.429688 787.116333,1889.014038 &#10;&#9;C790.094421,1889.014038 793.500122,1889.014038 797.241882,1889.014038 &#10;&#9;C797.402710,1891.958496 797.560486,1894.847900 797.736755,1898.076294 &#10;&#9;C800.817139,1895.347656 803.488831,1892.980957 806.458008,1890.395020 &#10;z" stroke="none" opacity="1.000000" fill="#080808"/>
<path d="M1378.658936,1966.403564 &#10;&#9;C1382.607666,1959.813477 1382.317749,1952.892578 1382.463135,1946.562378 &#10;&#9;C1377.275146,1949.367065 1372.436890,1953.167725 1366.962524,1954.708862 &#10;&#9;C1353.251221,1958.568726 1339.839966,1951.154785 1334.993286,1937.723145 &#10;&#9;C1331.052979,1926.803223 1331.269043,1915.826416 1335.932617,1905.127319 &#10;&#9;C1340.707397,1894.172363 1351.872314,1887.115845 1363.735962,1887.437256 &#10;&#9;C1371.536743,1887.648560 1377.791626,1890.934692 1382.882080,1898.418091 &#10;&#9;C1382.882080,1894.714722 1382.882080,1892.048950 1382.882080,1889.068237 &#10;&#9;C1386.965332,1889.068237 1390.520020,1889.068237 1393.956543,1889.068237 &#10;&#9;C1393.956543,1911.334229 1394.628540,1933.452759 1393.749634,1955.509521 &#10;&#9;C1393.011597,1974.026123 1380.855835,1984.426880 1361.636108,1984.287354 &#10;&#9;C1355.606567,1984.243652 1349.572876,1982.402954 1343.574341,1981.216553 &#10;&#9;C1339.240601,1980.359375 1337.788452,1977.931885 1339.989014,1973.753540 &#10;&#9;C1340.657959,1972.483276 1340.971313,1971.025757 1341.453491,1969.637085 &#10;&#9;C1359.940552,1977.623535 1370.536987,1976.746216 1378.658936,1966.403564 &#10;M1367.847290,1897.268555 &#10;&#9;C1360.454956,1896.335938 1354.425903,1898.723389 1350.027100,1904.790894 &#10;&#9;C1343.632324,1913.611938 1343.260498,1929.236206 1349.138306,1938.367920 &#10;&#9;C1353.327026,1944.875366 1361.553345,1947.927979 1369.201050,1945.812744 &#10;&#9;C1376.388184,1943.824951 1381.635498,1937.409546 1382.013672,1929.836670 &#10;&#9;C1382.253540,1925.030518 1382.334595,1920.206299 1382.234863,1915.395386 &#10;&#9;C1382.040527,1906.021973 1377.659424,1900.358154 1367.847290,1897.268555 &#10;z" stroke="none" opacity="1.000000" fill="#080909"/>
<path d="M1455.993164,1924.786865 &#10;&#9;C1444.719360,1924.784912 1433.944214,1924.784912 1423.174561,1924.784912 &#10;&#9;C1423.090454,1944.194458 1440.315308,1952.419922 1463.871094,1944.154541 &#10;&#9;C1464.622192,1946.824463 1465.366211,1949.468872 1466.099976,1952.077026 &#10;&#9;C1454.247925,1958.987915 1430.600708,1959.773193 1418.933716,1946.341064 &#10;&#9;C1408.529419,1934.362915 1408.155273,1911.950684 1418.446899,1898.972656 &#10;&#9;C1426.057861,1889.375000 1439.123779,1885.042725 1450.655029,1888.292847 &#10;&#9;C1461.705322,1891.407471 1468.751343,1900.341675 1470.252441,1913.364502 &#10;&#9;C1470.664917,1916.943359 1470.708008,1920.564697 1470.957275,1924.788818 &#10;&#9;C1465.711548,1924.788818 1461.101807,1924.788818 1455.993164,1924.786865 &#10;M1446.482666,1915.198242 &#10;&#9;C1450.553833,1915.198242 1454.625122,1915.198242 1458.752441,1915.198242 &#10;&#9;C1457.423340,1902.592407 1451.447021,1896.146118 1441.806030,1896.335815 &#10;&#9;C1432.231201,1896.524414 1424.444458,1904.502319 1423.627808,1915.198242 &#10;&#9;C1430.925659,1915.198242 1438.206543,1915.198242 1446.482666,1915.198242 &#10;z" stroke="none" opacity="1.000000" fill="#0B0B0B"/>
<path d="M944.013245,1955.963379 &#10;&#9;C934.912231,1957.614624 926.373291,1957.512817 918.113281,1953.976196 &#10;&#9;C910.017517,1950.509644 904.410461,1944.615112 901.631775,1936.294312 &#10;&#9;C898.004761,1925.432983 898.416382,1914.643921 903.456360,1904.275635 &#10;&#9;C910.251587,1890.296631 927.123535,1883.338135 941.460449,1889.302612 &#10;&#9;C946.080566,1891.224731 950.538879,1895.057739 953.480469,1899.157837 &#10;&#9;C958.703003,1906.437256 958.863892,1915.274414 958.506775,1924.444458 &#10;&#9;C942.582520,1924.444458 927.022827,1924.444458 911.460205,1924.444458 &#10;&#9;C911.811218,1944.792114 929.788574,1952.776367 951.809631,1944.198853 &#10;&#9;C952.256897,1945.564087 952.743286,1946.895264 953.124146,1948.255981 &#10;&#9;C953.480957,1949.530273 953.725891,1950.835938 954.192444,1952.884644 &#10;&#9;C950.931458,1953.894043 947.686035,1954.898560 944.013245,1955.963379 &#10;M940.501099,1899.921021 &#10;&#9;C935.020081,1895.480103 928.959656,1895.021729 922.789062,1897.940918 &#10;&#9;C915.765381,1901.263550 912.890320,1907.560303 911.238647,1914.754517 &#10;&#9;C923.442749,1914.754517 935.097290,1914.754517 948.424377,1914.754517 &#10;&#9;C945.619019,1909.309814 943.330994,1904.869263 940.501099,1899.921021 &#10;z" stroke="none" opacity="1.000000" fill="#0B0B0B"/>
<path d="M1169.583008,1920.018311 &#10;&#9;C1169.585815,1932.142334 1169.585815,1943.769775 1169.585815,1955.713135 &#10;&#9;C1166.156006,1955.713135 1162.602051,1955.713135 1158.614380,1955.713135 &#10;&#9;C1158.426147,1953.209351 1158.241943,1950.760620 1158.012085,1947.705078 &#10;&#9;C1156.854004,1948.734009 1155.942383,1949.500122 1155.079468,1950.317383 &#10;&#9;C1148.534058,1956.515869 1140.726929,1958.555908 1132.037231,1956.826904 &#10;&#9;C1124.407349,1955.308838 1118.958008,1950.828979 1117.168579,1943.091797 &#10;&#9;C1115.269775,1934.881226 1117.179688,1927.557739 1123.985229,1922.007202 &#10;&#9;C1132.173706,1915.328491 1142.121826,1914.233521 1152.087891,1913.234131 &#10;&#9;C1153.561768,1913.086426 1155.048828,1913.071533 1156.484497,1912.997559 &#10;&#9;C1158.229004,1897.662842 1144.604004,1892.455444 1124.562866,1900.922485 &#10;&#9;C1123.700928,1898.315796 1122.847656,1895.735474 1122.010254,1893.203003 &#10;&#9;C1137.011597,1880.707520 1163.974731,1887.294556 1168.408325,1904.652710 &#10;&#9;C1169.620605,1909.399170 1169.233276,1914.554199 1169.583008,1920.018311 &#10;M1157.073242,1923.807739 &#10;&#9;C1156.447388,1922.920410 1155.620239,1921.179321 1155.225464,1921.272339 &#10;&#9;C1148.192261,1922.929688 1140.888184,1924.061401 1134.328735,1926.894653 &#10;&#9;C1129.650024,1928.915527 1128.355835,1934.293091 1129.269409,1939.465454 &#10;&#9;C1130.079224,1944.050659 1133.107788,1946.696533 1137.609253,1947.677490 &#10;&#9;C1146.553711,1949.626587 1158.656738,1941.447266 1157.104492,1932.229492 &#10;&#9;C1156.695801,1929.801758 1157.063354,1927.243164 1157.073242,1923.807739 &#10;z" stroke="none" opacity="1.000000" fill="#0B0B0B"/>
<path d="M1275.025146,1918.958008 &#10;&#9;C1284.431885,1916.393066 1293.506104,1913.983765 1303.061646,1911.446655 &#10;&#9;C1304.828857,1898.003052 1291.135010,1892.643677 1271.186279,1900.719116 &#10;&#9;C1270.331787,1898.081055 1269.486084,1895.470459 1268.402954,1892.126709 &#10;&#9;C1279.652588,1887.314331 1290.876465,1884.618286 1302.522827,1889.769531 &#10;&#9;C1312.617798,1894.234741 1315.946777,1903.026123 1315.975220,1913.426514 &#10;&#9;C1316.013428,1927.368652 1315.984863,1941.311035 1315.984863,1955.541260 &#10;&#9;C1312.962646,1955.541260 1309.370850,1955.541260 1305.347046,1955.541260 &#10;&#9;C1305.139160,1953.036743 1304.929077,1950.507080 1304.583740,1946.346802 &#10;&#9;C1302.651123,1948.619873 1301.675903,1950.096558 1300.392456,1951.221680 &#10;&#9;C1293.415771,1957.337402 1285.324097,1958.727051 1276.609985,1956.129028 &#10;&#9;C1269.009155,1953.862793 1264.685303,1948.356445 1263.463257,1940.675293 &#10;&#9;C1261.900269,1930.850098 1266.737183,1924.109863 1275.025146,1918.958008 &#10;M1303.712891,1932.957642 &#10;&#9;C1303.712891,1929.056396 1303.712891,1925.155151 1303.712891,1920.913696 &#10;&#9;C1295.525269,1921.496582 1288.054077,1921.977905 1281.514038,1926.200928 &#10;&#9;C1276.738281,1929.285034 1274.566040,1935.596558 1276.263184,1940.638428 &#10;&#9;C1277.873169,1945.421021 1282.393066,1948.202515 1288.072266,1947.905762 &#10;&#9;C1296.140869,1947.484131 1302.451782,1941.783447 1303.712891,1932.957642 &#10;z" stroke="none" opacity="1.000000" fill="#080909"/>
<path d="M1235.139404,1923.044922 &#10;&#9;C1235.089966,1919.723633 1235.172363,1916.885010 1234.970093,1914.066772 &#10;&#9;C1234.267212,1904.267578 1228.431274,1897.843994 1220.204834,1897.674927 &#10;&#9;C1211.037598,1897.486572 1203.889038,1903.771118 1202.723145,1913.395020 &#10;&#9;C1202.265015,1917.176758 1202.390991,1921.037720 1202.375488,1924.863037 &#10;&#9;C1202.334473,1934.997925 1202.361572,1945.133179 1202.361572,1955.567871 &#10;&#9;C1198.278076,1955.567871 1194.543457,1955.567871 1190.356934,1955.567871 &#10;&#9;C1190.356934,1933.587769 1190.356934,1911.533813 1190.356934,1889.126221 &#10;&#9;C1193.573242,1889.126221 1197.117554,1889.126221 1200.981201,1889.126221 &#10;&#9;C1201.111206,1892.056030 1201.241211,1894.987915 1201.403687,1898.650391 &#10;&#9;C1202.606201,1897.611328 1203.355713,1897.114014 1203.916870,1896.456055 &#10;&#9;C1211.030029,1888.115479 1220.601562,1885.239990 1230.785278,1888.422363 &#10;&#9;C1239.927856,1891.279297 1246.727295,1899.631104 1247.056885,1910.201050 &#10;&#9;C1247.527466,1925.284546 1247.176636,1940.393799 1247.176636,1955.707764 &#10;&#9;C1243.489380,1955.707764 1239.708008,1955.707764 1235.140503,1955.707764 &#10;&#9;C1235.140503,1945.020386 1235.140503,1934.278564 1235.139404,1923.044922 &#10;z" stroke="none" opacity="1.000000" fill="#0B0B0B"/>
<path d="M507.384583,1888.753906 &#10;&#9;C510.632172,1888.739746 513.431702,1888.739746 516.666382,1888.739746 &#10;&#9;C516.666382,1892.012207 516.666382,1894.921997 516.666382,1897.458130 &#10;&#9;C521.344910,1894.324341 525.492981,1890.167358 530.479248,1888.464355 &#10;&#9;C545.521118,1883.326538 560.433411,1892.562378 561.653015,1908.541992 &#10;&#9;C562.837830,1924.066406 561.910278,1939.752075 561.910278,1955.628662 &#10;&#9;C558.161438,1955.628662 554.410339,1955.628662 550.024353,1955.628662 &#10;&#9;C550.024353,1951.835205 550.020447,1948.068726 550.025085,1944.302368 &#10;&#9;C550.037231,1934.480347 550.209106,1924.655273 550.024841,1914.837036 &#10;&#9;C549.831116,1904.516724 543.795898,1897.529907 535.299255,1897.301880 &#10;&#9;C526.071045,1897.054199 518.064819,1904.687744 517.738708,1914.778687 &#10;&#9;C517.362488,1926.420166 517.568298,1938.080566 517.524048,1949.732666 &#10;&#9;C517.516602,1951.687012 517.522949,1953.641357 517.522949,1955.690308 &#10;&#9;C513.158264,1955.690308 509.386261,1955.690308 505.122406,1955.690308 &#10;&#9;C505.122406,1949.895386 505.139374,1944.286865 505.119202,1938.678345 &#10;&#9;C505.063507,1923.196167 504.949127,1907.713745 505.014557,1892.232056 &#10;&#9;C505.019440,1891.074707 506.266754,1889.922729 507.384583,1888.753906 &#10;z" stroke="none" opacity="1.000000" fill="#080808"/>
<path d="M604.976013,1935.951660 &#10;&#9;C605.555054,1937.377441 606.016541,1938.412109 606.893433,1940.378296 &#10;&#9;C608.772522,1935.166382 610.393799,1930.756958 611.953491,1926.325806 &#10;&#9;C615.814026,1915.358398 619.829224,1904.439819 623.385254,1893.373901 &#10;&#9;C624.542786,1889.771973 626.036072,1888.080200 629.919312,1888.622437 &#10;&#9;C632.191772,1888.939575 634.544678,1888.680298 637.644531,1888.680298 &#10;&#9;C634.140808,1897.913940 631.036072,1906.741211 627.462524,1915.374390 &#10;&#9;C620.796692,1931.478149 614.167053,1947.610474 606.923279,1963.457031 &#10;&#9;C602.211670,1973.763916 594.864197,1981.806396 583.153870,1984.558594 &#10;&#9;C582.052429,1984.817505 580.901367,1984.865356 579.331909,1985.068359 &#10;&#9;C578.738342,1981.677124 578.177307,1978.471313 577.548584,1974.878906 &#10;&#9;C587.442566,1972.781372 593.398865,1966.181763 598.183533,1958.037109 &#10;&#9;C599.962280,1955.009155 600.066589,1952.387085 598.718018,1949.175415 &#10;&#9;C590.938232,1930.647827 583.326172,1912.049805 575.655212,1893.476440 &#10;&#9;C575.099548,1892.131104 574.527161,1890.792847 573.789917,1889.041016 &#10;&#9;C578.254395,1889.041016 582.347473,1889.041016 586.976746,1889.041016 &#10;&#9;C592.838989,1904.291748 598.848694,1919.926147 604.976013,1935.951660 &#10;z" stroke="none" opacity="1.000000" fill="#080808"/>
<path d="M444.143005,1033.765381 &#10;&#9;C433.405426,1032.849487 425.611664,1028.222656 421.863708,1018.252380 &#10;&#9;C418.483368,1009.260071 420.054779,1000.796326 426.141327,993.449524 &#10;&#9;C433.040405,985.122131 445.365082,982.876404 455.783112,987.648010 &#10;&#9;C464.842865,991.797668 470.789612,1002.042969 469.670105,1011.573608 &#10;&#9;C468.292328,1023.303284 460.656952,1031.380737 449.031067,1033.349609 &#10;&#9;C447.563751,1033.598145 446.060547,1033.634521 444.143005,1033.765381 &#10;z" stroke="none" opacity="1.000000" fill="#6097BA"/>
<path d="M1616.080078,987.734619 &#10;&#9;C1626.379395,992.979004 1630.349731,1004.456421 1628.635620,1014.120789 &#10;&#9;C1626.786865,1024.543945 1619.355957,1031.448242 1608.362671,1033.308838 &#10;&#9;C1599.026367,1034.888794 1589.218628,1030.490967 1584.365356,1022.548462 &#10;&#9;C1578.910522,1013.621155 1579.536133,1002.563538 1585.979736,994.010742 &#10;&#9;C1591.375244,986.849365 1601.660767,983.385559 1610.557861,985.794495 &#10;&#9;C1612.315796,986.270447 1614.012451,986.972534 1616.080078,987.734619 &#10;z" stroke="none" opacity="1.000000" fill="#75A8C5"/>
<path d="M1004.794678,1576.937500 &#10;&#9;C1012.731262,1567.662231 1022.479004,1564.473755 1032.116699,1567.768311 &#10;&#9;C1041.839722,1571.092285 1048.308960,1579.389404 1048.861816,1589.245239 &#10;&#9;C1049.413696,1599.085693 1043.604614,1608.903809 1034.964111,1612.734497 &#10;&#9;C1025.898071,1616.753784 1014.769409,1614.972900 1007.972900,1608.414673 &#10;&#9;C1000.791443,1601.485474 998.601074,1590.646484 1002.526611,1581.222412 &#10;&#9;C1003.099426,1579.847168 1003.893005,1578.563965 1004.794678,1576.937500 &#10;z" stroke="none" opacity="1.000000" fill="#6AA2C4"/>
<path d="M1000.850220,426.917480 &#10;&#9;C1001.132690,412.460724 1010.456238,402.217102 1023.158081,401.947876 &#10;&#9;C1037.448608,401.644989 1047.944214,411.412689 1048.721802,425.739105 &#10;&#9;C1049.372314,437.720581 1038.830933,449.476685 1026.875122,450.103516 &#10;&#9;C1011.971497,450.884888 1001.576294,441.806091 1000.850220,426.917480 &#10;z" stroke="none" opacity="1.000000" fill="#79AAC7"/>
<path d="M420.264740,1896.999878 &#10;&#9;C420.264160,1889.529175 420.264160,1882.558594 420.264160,1875.117065 &#10;&#9;C410.962189,1875.117065 402.053528,1875.117065 392.922485,1875.117065 &#10;&#9;C392.922485,1871.368896 392.922485,1868.095459 392.922485,1864.515259 &#10;&#9;C415.317322,1864.515259 437.536469,1864.515259 460.136414,1864.515259 &#10;&#9;C460.136414,1867.815063 460.136414,1871.065308 460.136414,1874.828369 &#10;&#9;C451.063049,1874.828369 441.994751,1874.828369 432.495483,1874.828369 &#10;&#9;C432.495483,1902.027466 432.495483,1928.728516 432.495483,1955.651978 &#10;&#9;C428.448608,1955.651978 424.834076,1955.651978 420.265320,1955.651978 &#10;&#9;C420.265320,1936.301636 420.265320,1916.900757 420.264740,1896.999878 &#10;z" stroke="none" opacity="1.000000" fill="#0B0B0B"/>
<path d="M710.604553,1955.903564 &#10;&#9;C707.328979,1955.901001 704.505493,1955.901001 701.209839,1955.901001 &#10;&#9;C701.209839,1929.075684 701.209839,1902.349976 701.209839,1875.196045 &#10;&#9;C691.841492,1875.196045 682.926941,1875.196045 673.672974,1875.196045 &#10;&#9;C673.672974,1871.375000 673.672974,1867.981323 673.672974,1864.334473 &#10;&#9;C696.114868,1864.334473 718.377869,1864.334473 740.973267,1864.334473 &#10;&#9;C740.973267,1867.760254 740.973267,1871.172485 740.973267,1874.889648 &#10;&#9;C731.795532,1874.889648 722.698914,1874.889648 713.067322,1874.889648 &#10;&#9;C713.067322,1876.958008 713.064941,1878.736206 713.067627,1880.514404 &#10;&#9;C713.103394,1904.176270 713.177856,1927.838135 713.085266,1951.499512 &#10;&#9;C713.079468,1952.971069 711.763123,1954.437378 710.604553,1955.903564 &#10;z" stroke="none" opacity="1.000000" fill="#080909"/>
<path d="M1487.823730,1888.929199 &#10;&#9;C1491.234619,1888.905029 1494.218018,1888.905029 1497.704590,1888.905029 &#10;&#9;C1497.704590,1892.643677 1497.704590,1896.170532 1497.704590,1899.697388 &#10;&#9;C1502.953247,1891.893921 1509.036621,1886.515137 1519.251831,1888.003662 &#10;&#9;C1519.251831,1891.842041 1519.251831,1895.572266 1519.251831,1899.736938 &#10;&#9;C1513.539429,1898.695435 1508.469116,1899.515015 1504.523193,1903.720337 &#10;&#9;C1500.316162,1908.203735 1498.817993,1913.650391 1498.856567,1919.735718 &#10;&#9;C1498.930420,1931.380005 1498.793091,1943.025757 1498.735596,1954.670898 &#10;&#9;C1498.734863,1954.819336 1498.629761,1954.967285 1498.448608,1955.442627 &#10;&#9;C1494.838257,1955.442627 1491.089355,1955.442627 1486.934814,1955.442627 &#10;&#9;C1486.870239,1954.173828 1486.739990,1952.735229 1486.732544,1951.296265 &#10;&#9;C1486.630493,1931.496582 1486.531860,1911.696899 1486.496704,1891.897095 &#10;&#9;C1486.494995,1890.916504 1487.082886,1889.934692 1487.823730,1888.929199 &#10;z" stroke="none" opacity="1.000000" fill="#080909"/>
<path d="M761.649597,1888.549927 &#10;&#9;C763.188354,1889.339233 765.252075,1890.121948 765.258667,1890.921387 &#10;&#9;C765.434204,1912.375244 765.398499,1933.830811 765.398499,1955.579834 &#10;&#9;C761.383118,1955.579834 757.641785,1955.579834 753.534058,1955.579834 &#10;&#9;C753.534058,1933.516968 753.534058,1911.440063 753.534058,1888.551147 &#10;&#9;C756.036621,1888.551147 758.626282,1888.551147 761.649597,1888.549927 &#10;z" stroke="none" opacity="1.000000" fill="#0B0B0B"/>
<path d="M471.879028,1938.999146 &#10;&#9;C471.877533,1922.038208 471.877533,1905.576660 471.877533,1888.831665 &#10;&#9;C475.925049,1888.831665 479.819061,1888.831665 483.693390,1888.831665 &#10;&#9;C483.693390,1911.197754 483.693390,1933.267456 483.693390,1955.577393 &#10;&#9;C479.839966,1955.577393 476.238800,1955.577393 471.880524,1955.577393 &#10;&#9;C471.880524,1950.300049 471.880524,1944.899292 471.879028,1938.999146 &#10;z" stroke="none" opacity="1.000000" fill="#080808"/>
<path d="M765.356812,1873.352051 &#10;&#9;C762.160217,1877.338867 758.482605,1878.000610 754.592102,1875.479858 &#10;&#9;C751.539673,1873.501953 750.247131,1870.445435 751.586060,1866.820190 &#10;&#9;C753.071167,1862.799072 756.217712,1861.320801 760.302063,1861.885254 &#10;&#9;C765.317932,1862.578247 767.239319,1866.766724 765.356812,1873.352051 &#10;z" stroke="none" opacity="1.000000" fill="#0B0B0B"/>
<path d="M469.999359,1869.882324 &#10;&#9;C471.132263,1863.590942 474.405518,1861.017944 479.501343,1861.995117 &#10;&#9;C483.752441,1862.810181 486.134796,1866.574219 485.063354,1871.040649 &#10;&#9;C484.184723,1874.703125 481.740997,1876.816528 477.970673,1876.921021 &#10;&#9;C473.489990,1877.045410 470.816620,1874.716431 469.999359,1869.882324 &#10;z" stroke="none" opacity="1.000000" fill="#0B0B0B"/>
<path d="M1094.117920,973.585022 &#10;&#9;C1087.912598,976.631104 1083.778442,974.408936 1082.982300,967.838989 &#10;&#9;C1082.747559,965.902649 1082.343506,963.986816 1081.928223,961.537048 &#10;&#9;C1083.335083,961.677795 1084.368896,961.781189 1085.776123,961.869263 &#10;&#9;C1086.149414,961.853882 1086.123779,961.876404 1086.083252,962.261108 &#10;&#9;C1087.750122,964.721680 1089.457642,966.797485 1091.165161,968.873291 &#10;&#9;C1091.165161,968.873291 1091.124634,968.944153 1091.170654,969.149536 &#10;&#9;C1091.382690,969.658875 1091.628296,969.870544 1091.953369,969.989990 &#10;&#9;C1092.259277,970.418091 1092.565308,970.846191 1093.034424,971.780151 &#10;&#9;C1093.454102,972.521179 1093.710693,972.756348 1093.967407,972.991455 &#10;&#9;C1093.967407,972.991455 1094.092651,973.381653 1094.117920,973.585022 &#10;z" stroke="none" opacity="1.000000" fill="#7EB0CA"/>
<path d="M1091.131104,968.523804 &#10;&#9;C1089.457642,966.797485 1087.750122,964.721680 1086.070068,962.267944 &#10;&#9;C1087.763916,963.984741 1089.430542,966.079590 1091.131104,968.523804 &#10;z" stroke="none" opacity="1.000000" fill="#80B3CC"/>
<path d="M1093.925049,972.725098 &#10;&#9;C1093.710693,972.756348 1093.454102,972.521179 1093.133789,972.025635 &#10;&#9;C1093.341064,971.996338 1093.611938,972.227478 1093.925049,972.725098 &#10;z" stroke="none" opacity="1.000000" fill="#80B3CC"/>
<path d="M1091.925903,969.729004 &#10;&#9;C1091.628296,969.870544 1091.382690,969.658875 1091.147461,969.116028 &#10;&#9;C1091.351562,969.074158 1091.625000,969.271118 1091.925903,969.729004 &#10;z" stroke="none" opacity="1.000000" fill="#80B3CC"/>
<path d="M1015.998657,964.976196 &#10;&#9;C1018.678528,963.974548 1021.427551,963.119507 1024.006104,961.902893 &#10;&#9;C1025.121704,961.376526 1025.885254,960.103882 1026.808594,959.170044 &#10;&#9;C1025.826904,958.454773 1024.790894,957.061340 1023.872314,957.134949 &#10;&#9;C1018.090027,957.598450 1016.576965,954.644287 1016.883240,949.515686 &#10;&#9;C1016.957275,948.275940 1015.967590,946.111328 1015.017334,945.815125 &#10;&#9;C1009.844727,944.203003 1007.170227,940.789429 1007.065918,936.968750 &#10;&#9;C1002.500732,935.249573 998.912170,934.043213 995.478760,932.493164 &#10;&#9;C994.713806,932.147888 994.026794,930.559692 994.095886,929.600830 &#10;&#9;C994.897461,918.478943 995.974365,907.375916 996.690796,896.249390 &#10;&#9;C996.910889,892.831055 996.096191,889.359131 996.034546,885.906738 &#10;&#9;C995.916931,879.328552 996.081543,872.745605 995.984741,866.166809 &#10;&#9;C995.693726,846.378540 995.084778,826.591492 995.070435,806.803650 &#10;&#9;C995.056274,787.270508 995.802063,767.737427 995.858765,748.203308 &#10;&#9;C995.896362,735.243774 994.981201,722.279419 995.104492,709.322998 &#10;&#9;C995.201355,699.157532 996.244141,689.001404 996.838257,678.839478 &#10;&#9;C996.885681,678.028625 996.670044,677.205872 996.646545,676.386719 &#10;&#9;C996.463623,670.020935 995.889893,663.633301 996.222168,657.293518 &#10;&#9;C996.720703,647.780884 998.225098,638.502991 996.514465,628.740906 &#10;&#9;C995.270569,621.641724 995.209229,614.054688 996.558899,606.355591 &#10;&#9;C998.085327,597.648010 997.155884,588.224487 995.693604,579.376831 &#10;&#9;C994.684021,573.268311 998.257629,569.705139 1000.410278,565.402222 &#10;&#9;C1001.894775,562.434937 1005.111938,560.297302 1007.670349,557.912842 &#10;&#9;C1011.548584,554.298157 1015.936951,556.580261 1020.025574,557.275208 &#10;&#9;C1023.223328,557.818665 1025.476562,557.741089 1028.660645,555.877380 &#10;&#9;C1033.845947,552.842468 1038.846802,556.689941 1043.082886,559.750061 &#10;&#9;C1046.651855,562.328369 1049.819092,565.354980 1048.212280,570.925110 &#10;&#9;C1047.638916,572.912964 1049.491577,575.608154 1050.266357,577.970764 &#10;&#9;C1050.418335,578.434021 1050.811646,578.828857 1050.916870,579.295227 &#10;&#9;C1053.627686,591.310791 1057.599365,603.063354 1056.022705,615.794189 &#10;&#9;C1055.189331,622.522644 1055.872314,629.439758 1055.886597,636.271667 &#10;&#9;C1055.889648,637.769470 1055.994385,639.267212 1055.994751,640.764954 &#10;&#9;C1056.001587,670.260742 1056.000000,699.756470 1056.000000,729.252258 &#10;&#9;C1056.000000,745.497803 1056.000000,761.743408 1056.000000,777.988953 &#10;&#9;C1056.000000,815.819275 1056.000000,853.649658 1056.000000,891.479980 &#10;&#9;C1056.000000,903.058105 1056.078735,914.637024 1055.959106,926.213928 &#10;&#9;C1055.914795,930.504944 1054.052124,934.933472 1057.712524,938.895081 &#10;&#9;C1058.096680,938.944153 1058.006958,938.995361 1058.034546,938.950806 &#10;&#9;C1060.137207,940.820679 1062.110596,942.863586 1064.319580,944.608459 &#10;&#9;C1066.062378,945.985046 1068.094849,946.994751 1069.998535,948.167358 &#10;&#9;C1069.918457,948.657288 1069.838379,949.147217 1069.758301,949.637085 &#10;&#9;C1066.469604,950.089661 1063.187988,950.760620 1059.888184,950.865906 &#10;&#9;C1058.855713,950.898865 1057.832764,949.308838 1056.700195,948.639771 &#10;&#9;C1055.492554,947.926270 1054.160400,947.423645 1052.882568,946.829041 &#10;&#9;C1053.208862,948.283813 1053.267456,949.885742 1053.957275,951.140686 &#10;&#9;C1054.405518,951.956116 1055.774048,952.265625 1056.804199,952.843262 &#10;&#9;C1051.861450,957.324341 1049.853394,968.390869 1053.575439,973.791382 &#10;&#9;C1042.018188,966.140259 1029.648193,962.931702 1015.998657,964.976196 &#10;z" stroke="none" opacity="1.000000" fill="#7EB0CA"/>
<path d="M1015.691162,965.059082 &#10;&#9;C1029.648193,962.931702 1042.018188,966.140259 1053.576416,974.167969 &#10;&#9;C1055.061523,975.446838 1056.213867,976.605530 1057.797607,978.199768 &#10;&#9;C1065.988892,987.281616 1069.727417,997.621826 1071.017700,1008.993408 &#10;&#9;C1070.982178,1009.747620 1070.946777,1010.501892 1070.862915,1012.018677 &#10;&#9;C1070.344238,1015.174500 1070.249634,1017.723694 1069.333008,1019.931580 &#10;&#9;C1066.661743,1026.366821 1063.661865,1032.665527 1060.790649,1039.017700 &#10;&#9;C1052.400757,1047.474731 1042.908691,1053.535400 1030.677612,1055.205444 &#10;&#9;C1006.365051,1058.524902 984.331055,1042.758301 979.976746,1018.629028 &#10;&#9;C977.454712,1004.653503 981.428223,992.368835 989.261169,980.321655 &#10;&#9;C996.522888,972.813110 1004.794556,968.144958 1014.115845,965.238281 &#10;&#9;C1014.538452,965.206177 1014.961121,965.174072 1015.691162,965.059082 &#10;M1042.044067,1029.600952 &#10;&#9;C1042.639038,1029.019409 1043.246826,1028.450562 1043.826660,1027.854370 &#10;&#9;C1053.778687,1017.621399 1053.540894,1000.578918 1043.316162,991.027771 &#10;&#9;C1032.715820,981.125732 1015.715637,981.372070 1005.895325,991.569885 &#10;&#9;C996.621155,1001.200623 996.237671,1017.611816 1005.054260,1027.562866 &#10;&#9;C1014.348022,1038.052490 1029.584351,1039.106323 1042.044067,1029.600952 &#10;z" stroke="none" opacity="1.000000" fill="#FBFDF8"/>
<path d="M1071.299805,1008.722351 &#10;&#9;C1069.727417,997.621826 1065.988892,987.281616 1058.081299,978.330444 &#10;&#9;C1061.557373,978.557434 1070.066528,976.057800 1073.357544,973.658020 &#10;&#9;C1074.432861,972.873901 1075.784790,972.469238 1076.184326,972.280823 &#10;&#9;C1076.716064,975.987488 1077.317261,979.245728 1077.590088,982.531250 &#10;&#9;C1077.701294,983.871155 1077.116455,985.273621 1076.821289,986.641724 &#10;&#9;C1075.840088,991.188965 1073.426147,995.124878 1071.632202,999.323120 &#10;&#9;C1070.530273,1001.902161 1071.527344,1005.378113 1071.299805,1008.722351 &#10;z" stroke="none" opacity="1.000000" fill="#7EB0CA"/>
<path d="M1013.938965,964.886658 &#10;&#9;C1004.794556,968.144958 996.522888,972.813110 989.352539,979.991455 &#10;&#9;C989.625793,978.691345 990.055542,977.148499 990.784241,975.763000 &#10;&#9;C992.490601,972.518494 993.849731,968.892029 996.278625,966.286438 &#10;&#9;C998.440735,963.967102 1001.746155,961.746643 1004.742126,961.449463 &#10;&#9;C1007.618469,961.164062 1010.745361,963.404541 1013.938965,964.886658 &#10;z" stroke="none" opacity="1.000000" fill="#7EB0CA"/>
<path d="M1061.203125,1038.974365 &#10;&#9;C1063.661865,1032.665527 1066.661743,1026.366821 1069.333008,1019.931580 &#10;&#9;C1070.249634,1017.723694 1070.344238,1015.174500 1070.914795,1012.393555 &#10;&#9;C1071.343140,1013.054504 1072.038818,1014.140198 1071.937256,1015.145386 &#10;&#9;C1071.414185,1020.322937 1071.005737,1025.291748 1072.798218,1030.517944 &#10;&#9;C1074.259033,1034.777588 1070.558350,1036.840576 1066.895752,1037.944580 &#10;&#9;C1065.191528,1038.458252 1063.379150,1038.613403 1061.203125,1038.974365 &#10;z" stroke="none" opacity="1.000000" fill="#7EB0CA"/>
<path d="M1368.244019,1897.372925 &#10;&#9;C1377.659424,1900.358154 1382.040527,1906.021973 1382.234863,1915.395386 &#10;&#9;C1382.334595,1920.206299 1382.253540,1925.030518 1382.013672,1929.836670 &#10;&#9;C1381.635498,1937.409546 1376.388184,1943.824951 1369.201050,1945.812744 &#10;&#9;C1361.553345,1947.927979 1353.327026,1944.875366 1349.138306,1938.367920 &#10;&#9;C1343.260498,1929.236206 1343.632324,1913.611938 1350.027100,1904.790894 &#10;&#9;C1354.425903,1898.723389 1360.454956,1896.335938 1368.244019,1897.372925 &#10;z" stroke="none" opacity="1.000000" fill="#FBFDF8"/>
<path d="M1445.984985,1915.198242 &#10;&#9;C1438.206543,1915.198242 1430.925659,1915.198242 1423.627808,1915.198242 &#10;&#9;C1424.444458,1904.502319 1432.231201,1896.524414 1441.806030,1896.335815 &#10;&#9;C1451.447021,1896.146118 1457.423340,1902.592407 1458.752441,1915.198242 &#10;&#9;C1454.625122,1915.198242 1450.553833,1915.198242 1445.984985,1915.198242 &#10;z" stroke="none" opacity="1.000000" fill="#FBFDF8"/>
<path d="M940.772034,1900.174805 &#10;&#9;C943.330994,1904.869263 945.619019,1909.309814 948.424377,1914.754517 &#10;&#9;C935.097290,1914.754517 923.442749,1914.754517 911.238647,1914.754517 &#10;&#9;C912.890320,1907.560303 915.765381,1901.263550 922.789062,1897.940918 &#10;&#9;C928.959656,1895.021729 935.020081,1895.480103 940.772034,1900.174805 &#10;z" stroke="none" opacity="1.000000" fill="#FBFDF8"/>
<path d="M1157.073853,1924.276245 &#10;&#9;C1157.063354,1927.243164 1156.695801,1929.801758 1157.104492,1932.229492 &#10;&#9;C1158.656738,1941.447266 1146.553711,1949.626587 1137.609253,1947.677490 &#10;&#9;C1133.107788,1946.696533 1130.079224,1944.050659 1129.269409,1939.465454 &#10;&#9;C1128.355835,1934.293091 1129.650024,1928.915527 1134.328735,1926.894653 &#10;&#9;C1140.888184,1924.061401 1148.192261,1922.929688 1155.225464,1921.272339 &#10;&#9;C1155.620239,1921.179321 1156.447388,1922.920410 1157.073853,1924.276245 &#10;z" stroke="none" opacity="1.000000" fill="#FBFDF8"/>
<path d="M1303.684326,1933.393188 &#10;&#9;C1302.451782,1941.783447 1296.140869,1947.484131 1288.072266,1947.905762 &#10;&#9;C1282.393066,1948.202515 1277.873169,1945.421021 1276.263184,1940.638428 &#10;&#9;C1274.566040,1935.596558 1276.738281,1929.285034 1281.514038,1926.200928 &#10;&#9;C1288.054077,1921.977905 1295.525269,1921.496582 1303.712891,1920.913696 &#10;&#9;C1303.712891,1925.155151 1303.712891,1929.056396 1303.684326,1933.393188 &#10;z" stroke="none" opacity="1.000000" fill="#FBFDF8"/>
<path d="M1041.775879,1029.842529 &#10;&#9;C1029.584351,1039.106323 1014.348022,1038.052490 1005.054260,1027.562866 &#10;&#9;C996.237671,1017.611816 996.621155,1001.200623 1005.895325,991.569885 &#10;&#9;C1015.715637,981.372070 1032.715820,981.125732 1043.316162,991.027771 &#10;&#9;C1053.540894,1000.578918 1053.778687,1017.621399 1043.826660,1027.854370 &#10;&#9;C1043.246826,1028.450562 1042.639038,1029.019409 1041.775879,1029.842529 &#10;z" stroke="none" opacity="1.000000" fill="#F9B859"/>
</svg>